<svg fill="none" xmlns="http://www.w3.org/2000/svg" viewBox="0 0 51 39"><path d="M25.435 6.95H8.96a.874.874 0 100 1.749h16.475a.875.875 0 000-1.749zm0 9.821H8.96a.874.874 0 100 1.749h16.475a.875.875 0 000-1.749zM8.96 13.609h8.915a.875.875 0 000-1.749H8.96a.875.875 0 000 1.749zm16.313 0a.875.875 0 000-1.749h-4.118a.874.874 0 000 1.749h4.118z" fill="#9A9A9A"/><path d="M50.075 10.776a3.32 3.32 0 00-1.307-1.124 4.8 4.8 0 00-2.136-.441H33.178v-4.7a4.017 4.017 0 00-.567-2.169A3.56 3.56 0 0030.633.859a4.508 4.508 0 00-1.308-.216H4.977a4.827 4.827 0 00-2.136.441 3.36 3.36 0 00-1.655 1.775 4.292 4.292 0 00-.288 1.9v16.445a4.02 4.02 0 00.513 2.074 3.374 3.374 0 001.862 1.471c.435.147.89.223 1.349.227h2.224v4.431a.874.874 0 001.321.752l9.11-5.424h1.159v4.671a4.287 4.287 0 00.6 2.21c.315.506.757.92 1.283 1.2.671.34 1.417.508 2.169.488h11.854l9.11 5.423a.873.873 0 001.322-.751v-4.431h2.223a4.21 4.21 0 002-.515 3.24 3.24 0 001.214-1.182c.356-.633.533-1.35.513-2.075V13.327a4.053 4.053 0 00-.649-2.551zM17.022 22.984a.872.872 0 00-.448.124l-7.983 4.758v-3.768a.876.876 0 00-.874-.874h-3.1a2.532 2.532 0 01-1.137-.289 1.496 1.496 0 01-.568-.549 2.276 2.276 0 01-.27-1.186V4.723l-.006-.1-.006-.166a2.34 2.34 0 01.349-1.267c.159-.232.377-.417.631-.537.43-.19.897-.28 1.366-.262h24.348c.404.012.801.113 1.163.294.262.134.483.336.641.584.216.377.32.807.3 1.241v16.321c.002.452-.115.896-.339 1.288a1.6 1.6 0 01-.624.584c-.417.204-.879.3-1.343.281h-12.1zm31.953-9.79l-.007.1v16.478c.019.413-.074.823-.27 1.186a1.62 1.62 0 01-.917.7c-.254.085-.519.13-.787.135h-3.096a.876.876 0 00-.874.874v3.768l-8-4.76a.879.879 0 00-.447-.122h-12.1a2.813 2.813 0 01-1.344-.281 1.693 1.693 0 01-.8-.944 2.799 2.799 0 01-.164-.928v-4.665h8.948a4.533 4.533 0 002.169-.488 3.45 3.45 0 001.611-1.873 4.52 4.52 0 00.274-1.54v-9.87h13.455c.47-.018.937.072 1.367.262.368.176.654.486.8.866.116.299.176.617.175.938l.007.136v.028z" fill="#9A9A9A"/></svg>