<svg xmlns="http://www.w3.org/2000/svg" height="64" viewBox="0 0 512 512" width="64"><circle cx="256" cy="256" fill="#fff01f" r="248.5" data-original="#EAB14D" data-old_color="#eab14d"/><path d="M256 7.5c-4.436 0-8.844.121-13.223.351C373.873 14.725 478.055 123.193 478.055 256S373.873 497.276 242.778 504.149c4.379.23 8.786.351 13.223.351 137.243 0 248.5-111.257 248.5-248.5S393.243 7.5 256 7.5z" fill="#fff01f" data-original="#E49542" data-old_color="#e49542"/><circle cx="256" cy="256" fill="#fff" r="193.643" data-original="#F4FBFF" data-old_color="#f4fbff"/><path d="M256 62.357c-5.363 0-10.672.228-15.924.656 99.496 8.1 177.719 91.404 177.719 192.987s-78.223 184.887-177.719 192.987c5.253.428 10.562.656 15.924.656 106.946 0 193.643-86.697 193.643-193.643S362.946 62.357 256 62.357z" fill="#fff" data-original="#DAF1F4" data-old_color="#daf1f4"/><circle cx="256" cy="256" fill="#365e7d" r="20.018" data-original="#365E7D"/><path d="M256 121.957a7.5 7.5 0 007.5-7.5v-11.008a7.5 7.5 0 00-15 0v11.008a7.5 7.5 0 007.5 7.5zm112.767 21.039a7.498 7.498 0 00-10.606 0l-7.784 7.783a7.5 7.5 0 005.303 12.804 7.477 7.477 0 005.303-2.196l7.784-7.784a7.502 7.502 0 000-10.607zm27.961 105.505c-4.143 0-7.5 3.358-7.5 7.5s3.357 7.5 7.5 7.5h11.008c4.143 0 7.5-3.357 7.5-7.5s-3.357-7.5-7.5-7.5zm-36.323 101.875a7.5 7.5 0 00-10.607 10.607l7.783 7.783c1.465 1.464 3.385 2.196 5.304 2.196s3.839-.732 5.304-2.196a7.5 7.5 0 000-10.607zm-112.722 46.353v11.008c0 4.143 3.358 7.5 7.5 7.5s7.5-3.357 7.5-7.5v-11.008c0-4.143-3.357-7.5-7.5-7.5s-7.5 3.357-7.5 7.5zm-97.482-46.931l-7.784 7.783a7.5 7.5 0 000 10.606c1.464 1.465 3.384 2.197 5.303 2.197s3.839-.732 5.303-2.196l7.784-7.783a7.501 7.501 0 00-10.606-10.607zm-46.753-102.114a7.5 7.5 0 000 15h11.008a7.5 7.5 0 000-15zm57.938-97.482l-7.784-7.784a7.501 7.501 0 00-10.607 10.607l7.784 7.783c1.465 1.465 3.384 2.197 5.303 2.197s3.839-.732 5.304-2.197a7.5 7.5 0 000-10.606zm114.712 124.566l53.422 27.47c3.706 1.906 8.216.422 10.1-3.24a7.5 7.5 0 00-3.24-10.1l-53.404-27.461c.354-1.759.542-3.577.542-5.438 0-12.573-8.479-23.196-20.017-26.47v-76.447a7.5 7.5 0 00-15 0v76.447c-9.152 2.597-16.373 9.818-18.97 18.97h-37.227a7.5 7.5 0 000 15h37.227c3.274 11.538 13.897 20.018 26.47 20.018 7.924.001 15.072-3.37 20.097-8.749zM256 268.518c-6.902 0-12.518-5.615-12.518-12.518 0-6.902 5.615-12.518 12.518-12.518 6.902 0 12.517 5.615 12.517 12.518.001 6.903-5.615 12.518-12.517 12.518z" data-original="#000000"/><path d="M449.643 248.486a7.5 7.5 0 006.906-8.051c-3.859-50.393-26.432-97.172-63.562-131.721C355.663 73.984 307.014 54.857 256 54.857 145.09 54.857 54.857 145.089 54.857 256S145.09 457.143 256 457.143c104.896 0 192.524-80.806 200.548-185.576a7.501 7.501 0 00-6.906-8.051c-4.113-.309-7.734 2.775-8.051 6.906C434.184 367.16 353.273 442.143 256 442.143 153.36 442.143 69.857 358.64 69.857 256S153.36 69.857 256 69.857c47.208 0 92.229 17.7 126.769 49.839 34.362 31.974 55.253 75.26 58.822 121.885.317 4.128 3.907 7.228 8.052 6.905z" data-original="#000000"/><path d="M437.02 74.981C388.668 26.628 324.381 0 256 0c-49.143 0-96.883 13.964-138.061 40.384a7.5 7.5 0 008.101 12.625C164.795 28.143 209.735 15 256 15c64.374 0 124.894 25.068 170.413 70.587S497 191.626 497 256c0 133.193-107.788 241-241 241-23.803 0-47.345-3.476-69.972-10.329a7.497 7.497 0 00-9.352 5.004 7.5 7.5 0 005.003 9.352C205.718 508.308 230.723 512 256 512c141.484 0 256-114.497 256-256 0-68.38-26.629-132.667-74.98-181.019zM158.756 476.559C71.428 437.998 15 351.423 15 256c0-72.108 31.911-139.843 87.55-185.839A7.5 7.5 0 1092.992 58.6C33.895 107.455 0 179.404 0 256c0 101.36 59.937 193.321 152.696 234.282a7.476 7.476 0 003.026.641 7.501 7.501 0 003.034-14.364z" data-original="#000000"/></svg>