<svg xmlns="http://www.w3.org/2000/svg" height="64" viewBox="0 0 512 512" width="64"><path d="M47.478 452.317l295.441 19.76c5.511.369 10.277-3.8 10.645-9.31L381.957 38.25c.369-5.511-3.8-10.276-9.31-10.645L77.206 7.845c-5.511-.369-10.276 3.8-10.645 9.31L38.167 441.672c-.368 5.511 3.8 10.277 9.311 10.645z" fill="#fff" data-original="#FAE19E" data-old_color="#fae19e"/><path d="M17.5 504.177h226.14l79.96-79.605V68.712c0-5.523-4.477-10-10-10H17.5c-5.523 0-10 4.477-10 10v425.466c0 5.522 4.477 9.999 10 9.999z" fill="#fff" data-original="#FFF9E9" data-old_color="#fff9e9"/><path d="M313.601 58.712h-40c5.523 0 10 4.477 10 10v355.861l-.258 40.078 40.258-40.078V68.712c0-5.523-4.477-10-10-10z" fill="#fff" data-original="#FFF4D6" data-old_color="#fff4d6"/><path d="M243.64 504.177v-70.253c0-5.523 4.477-10 10-10h69.96z" fill="#fff01f" data-original="#FFEEC2" class="active-path" data-old_color="#ffeec2"/><path d="M468.636 248.58l-33.372.165v-50.826c0-9.183 7.463-16.662 16.673-16.708h.007c9.217-.046 16.693 7.371 16.693 16.562v50.807z" fill="#fed23a" data-original="#FED23A"/><path d="M451.96 504.177a54.79 54.79 0 01-16.208-38.857l-.062-73.973c0-.644.524-1.169 1.171-1.173l30.038-.149a1.162 1.162 0 011.171 1.161l.062 74.079a54.794 54.794 0 01-16.015 38.756z" fill="#54b1ff" data-original="#54B1FF"/><path d="M451.959 469.333h-.01c-14.434.072-26.14-11.542-26.14-25.935V229.871c0-6.778 5.477-12.283 12.255-12.316l27.626-.137c6.826-.034 12.378 5.49 12.378 12.316V443.17c0 14.38-11.687 26.091-26.109 26.163z" fill="#fff01f" data-original="#FDF385" data-old_color="#fdf385"/><path d="M465.69 217.417l-23.769.118c6.037.79 10.708 5.94 10.708 12.198V443.17c0 9.823-5.455 18.397-13.507 22.87a25.96 25.96 0 0012.826 3.293h.01c14.422-.072 26.109-11.783 26.109-26.163V229.734c.001-6.826-5.551-12.351-12.377-12.317z" fill="#fff01f" data-original="#FAEE6E" data-old_color="#faee6e"/><path d="M491.274 247.925l-71.615.355c-7.305.036-13.226 5.968-13.226 13.248 0 7.281 5.921 13.153 13.226 13.117l58.389-.29v77.489c0 7.281 5.921 13.153 13.226 13.117 7.305-.036 13.226-5.968 13.226-13.248v-90.672c0-7.28-5.922-13.152-13.226-13.116z" fill="#54b1ff" data-original="#54B1FF"/><path d="M491.274 247.925l-38.441.188-.167 26.311 25.381-.067v77.489c0 7.281 5.921 13.153 13.226 13.117 7.305-.036 13.226-5.968 13.226-13.248v-90.672c.001-7.282-5.921-13.154-13.225-13.118z" fill="#3da7ff" data-original="#3DA7FF"/><g fill="#060606"><path d="M373.147 20.122L77.707.361c-9.631-.638-17.984 6.665-18.629 16.293l-2.311 34.557H17.5c-9.649 0-17.5 7.851-17.5 17.5v425.466c0 9.649 7.851 17.5 17.5 17.5h226.141a7.58 7.58 0 005.292-2.185l34.138-33.987c.347.074.701.133 1.065.157l58.282 3.898c9.302.614 18.005-6.952 18.629-16.293L389.44 38.752c.639-9.528-6.766-17.993-16.293-18.63zM251.141 486.024v-52.1c0-1.378 1.122-2.5 2.5-2.5h51.9zm94.939-23.757c-.244 1.51-1.131 2.286-2.66 2.327l-46.28-3.096 31.752-31.611a7.498 7.498 0 002.209-5.315V68.712c0-9.649-7.851-17.5-17.5-17.5h-77.993c-9.697 0-9.697 15 0 15h77.993c1.379 0 2.5 1.122 2.5 2.5v347.712h-62.46c-9.649 0-17.5 7.851-17.5 17.5v62.753H17.5a2.503 2.503 0 01-2.5-2.5V68.712c0-1.378 1.122-2.5 2.5-2.5h178.168c9.697 0 9.697-15 0-15H71.8l2.244-33.556c.244-1.511 1.131-2.286 2.661-2.327l295.44 19.76c1.511.244 2.287 1.131 2.328 2.661z" data-original="#060606"/><path d="M267.827 237.047H63.274a7.5 7.5 0 000 15h204.553c4.143 0 7.5-3.358 7.5-7.5s-3.357-7.5-7.5-7.5zm0 52.285H63.274a7.5 7.5 0 000 15h204.553c4.143 0 7.5-3.358 7.5-7.5s-3.357-7.5-7.5-7.5zm-212.053-97.07a7.5 7.5 0 007.5 7.5h204.553c4.143 0 7.5-3.358 7.5-7.5s-3.357-7.5-7.5-7.5H63.274a7.5 7.5 0 00-7.5 7.5zm36.033-52.285a7.5 7.5 0 007.5 7.5h132.487a7.5 7.5 0 000-15H99.307a7.5 7.5 0 00-7.5 7.5zm102.948 298.81c-13.489.036-26.978.065-40.467.086-4.534.007-9.067.013-13.6.016-8.215.006-13.75-1.643-15.59-10.679-1.556-7.64-12.364-6.613-14.464 0-5.19 16.337-13.774 9.936-18.582-1.053-4.797-10.963-6.027-23.233-8.122-34.9-1.54-8.573-14.506-6.17-14.732 1.994-.298 10.751-1.302 21.331-4.031 31.758-2.815 10.758-7.034 21.097-11.222 31.376-3.651 8.961 10.867 12.816 14.464 3.988 3.711-9.108 7.427-18.266 10.193-27.714 5.14 12.36 15.774 26.34 30.927 18.101 2.819-1.533 5.452-3.712 7.763-6.253 7.88 9.106 19.609 8.388 30.584 8.375 15.627-.02 31.254-.054 46.881-.095 9.649-.025 9.667-15.025-.002-15zm311.177-192.348c-3.897-3.878-9.255-5.867-14.695-6.014l-5.668.028v-10.719c0-6.529-3.878-13.427-9.433-16.862v-15.098c0-31.069-48.372-30.934-48.372.146v15.1c-5.659 3.498-9.455 9.741-9.455 16.852v10.982c-24.966 1.7-25.037 39.745.028 41.232.16 33.575.152 66.6-.028 100.737-.049 9.414 14.949 9.966 15 .079.18-34.166.188-67.22.029-100.823l37.211-.185s-.048 110.848-.048 160.784c0 24.338-37.219 24.5-37.219-.253l.013-13.677c.585-9.68-14.387-10.583-14.973-.904v12.834c0 11 3.402 20.316 9.988 26.869.586 15.693 7.198 30.878 18.369 41.956 3.205 3.18 7.642 2.208 10.744-.182 11.365-11.385 17.769-26.394 18.169-42.414 4.951-4.931 9.908-9.896 9.908-26.896l.006-68.351c12.97 3.689 26.494-6.348 26.494-19.946v-90.672a20.461 20.461 0 00-6.068-14.603zm-72.623-5.727v-10.841c0-2.219 1.523-4.08 3.573-4.633l30.025-.149c.84.208 1.615.605 2.243 1.231a4.785 4.785 0 011.419 3.414v10.794zm18.671-52c4.604 0 9.155 4.514 9.155 9.062v12.166l-18.372.091V197.92c.001-5.053 4.133-9.183 9.217-9.208zm-.011 303.901a47.846 47.846 0 01-7.417-16.406c2.322.503 4.674.765 7.027.765 2.627 0 5.253-.326 7.839-.957a46.767 46.767 0 01-7.449 16.598zM497 351.714c0 7.101-11.452 7.66-11.452.131 0 0 .013-70.974.021-77.48.005-4.196-3.483-7.509-7.558-7.509l-58.389.29c-7.242 0-7.073-11.331.074-11.366l71.615-.355c3.463.295 5.359 2.168 5.688 5.617v90.672z" data-original="#060606"/></g></svg>