<svg xmlns="http://www.w3.org/2000/svg" viewBox="0 0 496 496" width="512" height="512" class="hovered-paths"><path d="M288.032 257.288C287.312 243.448 298.32 232 312 232c-13.256 0-24-10.744-24-24s10.744-24 24-24c-13.256 0-24-10.744-24-24s10.744-24 24-24c-13.68 0-24.688-11.448-23.968-25.288C288.712 97.728 300.36 88 313.36 88H328c0-4.416-3.584-8-8-8H176c-4.416 0-8 3.584-8 8v80h6.64c12.992 0 24.648 9.728 25.32 22.712C200.688 204.552 189.68 216 176 216h-8v64c0 4.416 3.584 8 8 8h144c4.416 0 8-3.584 8-8h-14.64c-13 0-24.648-9.728-25.328-22.712z" data-original="#F0BC5E" class="hovered-path active-path" data-old_color="#F0BC5E" fill="#5c9be8"/><path data-original="#000000" data-old_color="#000000" fill="#fff01f" d="M219.632 336h56.736v16h-56.736z"/><path d="M392 112c0-17.648-14.352-32-32-32V40c0-22.056-17.944-40-40-40H176c-22.056 0-40 17.944-40 40v120h-8c-22.056 0-40 17.944-40 40v146.336c0 34.472 18.264 65.624 48 82.464V496h160v-67.904c13.824-10.688 22.36-26.68 23.72-44.096h.28c22.056 0 40-17.944 40-40v-56c17.648 0 32-14.352 32-32 0-9.608-4.336-18.128-11.056-24 6.72-5.872 11.056-14.392 11.056-24s-4.336-18.128-11.056-24c6.72-5.872 11.056-14.392 11.056-24s-4.336-18.128-11.056-24c6.72-5.872 11.056-14.392 11.056-24zM176 16h144c13.232 0 24 10.768 24 24v8H152v-8c0-13.232 10.768-24 24-24zm107.56 401.344L280 419.72V480H152v-60.944l-4.424-2.208C120.696 403.4 104 376.384 104 346.336V200c0-13.232 10.768-24 24-24h48c8.824 0 16 7.176 16 16s-7.176 16-16 16h-40v136c0 22.056 17.944 40 40 40h127.704c-1.432 13.496-8.704 25.72-20.144 33.344zM320 368H176c-13.232 0-24-10.768-24-24v-24h192v24c0 13.232-10.768 24-24 24zm24-64H152v-80h16v64h16v-65.136c13.768-3.576 24-15.992 24-30.864s-10.232-27.288-24-30.864V112h-16v48h-16V64h192v16h-32c-17.648 0-32 14.352-32 32 0 9.608 4.336 18.128 11.056 24-6.72 5.872-11.056 14.392-11.056 24s4.336 18.128 11.056 24c-6.72 5.872-11.056 14.392-11.056 24s4.336 18.128 11.056 24c-6.72 5.872-11.056 14.392-11.056 24 0 17.648 14.352 32 32 32h32v16zm32-48c0 8.824-7.176 16-16 16h-48c-8.824 0-16-7.176-16-16s7.176-16 16-16h48c8.824 0 16 7.176 16 16zm0-48c0 8.824-7.176 16-16 16h-48c-8.824 0-16-7.176-16-16s7.176-16 16-16h48c8.824 0 16 7.176 16 16zm0-48c0 8.824-7.176 16-16 16h-48c-8.824 0-16-7.176-16-16s7.176-16 16-16h48c8.824 0 16 7.176 16 16zm-64-32c-8.824 0-16-7.176-16-16s7.176-16 16-16h48c8.824 0 16 7.176 16 16s-7.176 16-16 16h-48zM32 72c0 22.056 17.944 40 40 40V96c-13.232 0-24-10.768-24-24s10.768-24 24-24V32c-22.056 0-40 17.944-40 40z" data-original="#000000" data-old_color="#000000" fill="#fff01f"/><path d="M0 72c0 39.704 32.296 72 72 72v-16c-30.872 0-56-25.128-56-56s25.128-56 56-56V0C32.296 0 0 32.296 0 72zm464 0c0-22.056-17.944-40-40-40v16c13.232 0 24 10.768 24 24s-10.768 24-24 24v16c22.056 0 40-17.944 40-40z" data-original="#000000" data-old_color="#000000" fill="#fff01f"/><path d="M424 0v16c30.872 0 56 25.128 56 56s-25.128 56-56 56v16c39.704 0 72-32.296 72-72S463.704 0 424 0zM168 80h16v16h-16z" data-original="#000000" data-old_color="#000000" fill="#fff01f"/></svg>