<svg xmlns="http://www.w3.org/2000/svg" height="64" width="64"><path d="M32 55c-1.654 0-3-1.346-3-3v-3.421c-4.102-1.24-7-5.078-7-9.419V39c0-1.654 1.346-3 3-3s3 1.346 3 3v.16A3.844 3.844 0 0031.84 43h.319a3.844 3.844 0 003.84-3.84 3.856 3.856 0 00-2.785-3.693l-4.079-1.165c-4.2-1.2-7.135-5.091-7.135-9.462 0-4.341 2.898-8.179 7-9.419V12c0-1.654 1.346-3 3-3s3 1.346 3 3v3.421c4.102 1.24 7 5.078 7 9.419V25c0 1.654-1.346 3-3 3s-3-1.346-3-3v-.16A3.844 3.844 0 0032.16 21h-.32A3.845 3.845 0 0028 24.84a3.856 3.856 0 002.785 3.693l4.079 1.165C39.065 30.898 42 34.789 42 39.16c0 4.341-2.898 8.179-7 9.419V52c0 1.654-1.346 3-3 3z" fill="#fff01f" data-original="#F0BC5E" class="active-path" data-old_color="#f0bc5e"/><path d="M32 55c-1.654 0-3-1.346-3-3v-3.421c-4.102-1.24-7-5.078-7-9.419V39c0-1.654 1.346-3 3-3s3 1.346 3 3v.16A3.844 3.844 0 0031.84 43h.319a3.844 3.844 0 003.84-3.84 3.856 3.856 0 00-2.785-3.693l-4.079-1.165c-4.2-1.2-7.135-5.091-7.135-9.462 0-4.341 2.898-8.179 7-9.419V12c0-1.654 1.346-3 3-3s3 1.346 3 3v3.421c4.102 1.24 7 5.078 7 9.419V25c0 1.654-1.346 3-3 3s-3-1.346-3-3v-.16A3.844 3.844 0 0032.16 21h-.32A3.845 3.845 0 0028 24.84a3.856 3.856 0 002.785 3.693l4.079 1.165C39.065 30.898 42 34.789 42 39.16c0 4.341-2.898 8.179-7 9.419V52c0 1.654-1.346 3-3 3z" fill="#fff01f" data-original="#F0BC5E" class="active-path" data-old_color="#f0bc5e"/><path d="M50 17H38.076a9.973 9.973 0 011.984 2H50zm-15-4h15v2H35z" data-original="#000000" data-old_color="#000000" fill="#fff"/><path d="M60.277 4l-2.868-1.721A8.978 8.978 0 0052.791 1H44c-1.103 0-2 .897-2 2 0 .732.212 1.409.556 2H38c-1.654 0-3 1.346-3 3 0 .352.072.686.184 1H32c1.302 0 2.402.839 2.816 2H50V9H38c-.551 0-1-.449-1-1s.449-1 1-1h11.586l.95.95a6.954 6.954 0 004.95 2.05H57V8h-1.515a4.971 4.971 0 01-3.536-1.464L50.414 5H46c-1.103 0-2-.897-2-2h8.791a6.98 6.98 0 013.589.994L59.723 6H61v12h-1.277l-3.343 2.006a6.98 6.98 0 01-3.589.994H41.21c.273.637.474 1.308.608 2h10.973a8.984 8.984 0 004.619-1.279L60.277 20H63V4zM14 49h15v2H14z" data-original="#000000" data-old_color="#000000" fill="#fff"/><path d="M29.184 53H14v2h12c.551 0 1 .449 1 1s-.449 1-1 1H14v2h10c.551 0 1 .449 1 1s-.449 1-1 1H11.209a6.98 6.98 0 01-3.589-.994L4.277 58H3V46h1.277l3.343-2.006A6.98 6.98 0 0111.209 43H20c0 1.103-.897 2-2 2h-4.414l-1.536 1.536A4.967 4.967 0 018.515 48H7v2h1.515c1.87 0 3.627-.728 4.95-2.05l.95-.95h11.509a9.973 9.973 0 01-1.984-2h-2.496A3.959 3.959 0 0022 43c0-1.103-.897-2-2-2h-8.791a8.984 8.984 0 00-4.619 1.279L3.723 44H1v16h2.723l2.868 1.721A8.978 8.978 0 0011.209 63H24c1.654 0 3-1.346 3-3 0-.395-.081-.77-.22-1.116A2.995 2.995 0 0029 56c0-.352-.072-.686-.184-1H32a2.996 2.996 0 01-2.816-2zM44 38h10v2H44zM10 24h10v2H10zm.918 6.585l9.24-3.83.766 1.848-9.24 3.83zm0-11.165l.766-1.847 9.24 3.83-.766 1.848zm32.181 15.976l9.24-3.83.766 1.848-9.24 3.83zm.004 7.211l.766-1.848 9.24 3.83-.766 1.848z" data-original="#000000" data-old_color="#000000" fill="#fff"/></svg>