<svg xmlns="http://www.w3.org/2000/svg" height="64" viewBox="0 0 512 512" width="64"><path d="M165.085 98.415C165.085 48.204 205.789 7.5 256 7.5s90.915 40.704 90.915 90.915z" fill="#fff01f" data-original="#FFE07D" class="active-path" data-old_color="#ffe07d"/><path d="M346.915 98.415c0-31.76-16.29-59.712-40.966-75.969 9.444 14.335 14.946 31.498 14.946 49.948a90.903 90.903 0 01-3.786 26.021z" fill="#fff01f" data-original="#FFD064" data-old_color="#ffd064"/><path d="M197.411 98.415c0-32.306 26.283-58.589 58.589-58.589s58.589 26.283 58.589 58.589z" fill="#eab14d" data-original="#EAB14D"/><path d="M114.577 150.943v-42.427c0-5.579 4.523-10.102 10.102-10.102h262.642c5.579 0 10.102 4.523 10.102 10.102v42.427c0 5.579-4.523 10.102-10.102 10.102H124.679c-5.579 0-10.102-4.523-10.102-10.102z" fill="#9dc6fb" data-original="#9DC6FB"/><path d="M387.321 98.415h-31.026c5.579 0 10.102 4.523 10.102 10.102v42.427c0 5.579-4.523 10.102-10.102 10.102h31.026c5.579 0 10.102-4.523 10.102-10.102v-42.427c0-5.58-4.523-10.102-10.102-10.102z" fill="#80b4fb" data-original="#80B4FB"/><path d="M84.27 303.59v-52.56c0-16.52 10.06-31.38 25.4-37.52l25.11-10.04v-42.43h242.44v42.43l25.11 10.04c15.34 6.14 25.4 21 25.4 37.52v213.06c0 22.32-18.09 40.41-40.41 40.41H124.68c-22.32 0-40.41-18.09-40.41-40.41v-125.3z" fill="#fff" data-original="#E7ECF6" data-old_color="#e7ecf6"/><path d="M402.328 213.515l-25.108-10.043v-42.427h-30.305v48.952c0 8.261 5.03 15.69 12.7 18.758l12.408 4.963a40.406 40.406 0 0125.4 37.516v192.859c0 22.316-18.091 40.406-40.406 40.406h30.305c22.316 0 40.406-18.091 40.406-40.406V251.031a40.407 40.407 0 00-25.4-37.516z" fill="#fff" data-original="#D8E2F1" data-old_color="#d8e2f1"/><path d="M346.915 464.094H185.289c-5.579 0-10.102 4.523-10.102 10.102v20.203c0 5.579 4.523 10.102 10.102 10.102h161.626c5.579 0 10.102-4.523 10.102-10.102v-20.203c-.001-5.58-4.523-10.102-10.102-10.102z" fill="#fff01f" data-original="#FFE07D" class="active-path" data-old_color="#ffe07d"/><path d="M346.915 464.094h-29.547c5.579 0 10.102 4.523 10.102 10.102v20.203c0 5.579-4.523 10.102-10.102 10.102h29.547c5.579 0 10.102-4.523 10.102-10.102v-20.203c-.001-5.58-4.523-10.102-10.102-10.102z" fill="#fff01f" data-original="#FFD064" data-old_color="#ffd064"/><path d="M326.711 423.687H165.085c-5.579 0-10.102 4.523-10.102 10.102v20.203c0 5.579 4.523 10.102 10.102 10.102h161.626c5.579 0 10.102-4.523 10.102-10.102v-20.203c0-5.579-4.523-10.102-10.102-10.102z" fill="#fff01f" data-original="#FFE07D" class="active-path" data-old_color="#ffe07d"/><path d="M326.711 423.687h-29.547c5.579 0 10.102 4.523 10.102 10.102v20.203c0 5.579-4.523 10.102-10.102 10.102h29.547c5.579 0 10.102-4.523 10.102-10.102v-20.203c0-5.579-4.523-10.102-10.102-10.102z" fill="#fff01f" data-original="#FFD064" data-old_color="#ffd064"/><path d="M346.915 383.28H185.289c-5.579 0-10.102 4.523-10.102 10.102v20.203c0 5.579 4.523 10.102 10.102 10.102h161.626c5.579 0 10.102-4.523 10.102-10.102v-20.203c-.001-5.579-4.523-10.102-10.102-10.102z" fill="#fff01f" data-original="#FFE07D" class="active-path" data-old_color="#ffe07d"/><path d="M346.915 383.28h-29.547c5.579 0 10.102 4.523 10.102 10.102v20.203c0 5.579-4.523 10.102-10.102 10.102h29.547c5.579 0 10.102-4.523 10.102-10.102v-20.203c-.001-5.579-4.523-10.102-10.102-10.102z" fill="#fff01f" data-original="#FFD064" data-old_color="#ffd064"/><path d="M326.711 342.874H165.085c-5.579 0-10.102 4.523-10.102 10.102v20.203c0 5.579 4.523 10.102 10.102 10.102h161.626c5.579 0 10.102-4.523 10.102-10.102v-20.203c0-5.579-4.523-10.102-10.102-10.102z" fill="#fff01f" data-original="#FFE07D" class="active-path" data-old_color="#ffe07d"/><path d="M326.711 342.874h-29.547c5.579 0 10.102 4.523 10.102 10.102v20.203c0 5.579-4.523 10.102-10.102 10.102h29.547c5.579 0 10.102-4.523 10.102-10.102v-20.203c0-5.579-4.523-10.102-10.102-10.102z" fill="#fff01f" data-original="#FFD064" data-old_color="#ffd064"/><path d="M405.115 206.546l-20.395-8.154V168.54h2.6c9.705 0 17.6-7.896 17.6-17.6v-42.42c0-9.71-7.896-17.609-17.6-17.609h-33.189C350.284 40.136 307.741 0 256 0s-94.284 40.136-98.131 90.91H124.68c-9.705 0-17.6 7.899-17.6 17.609v42.421c0 9.704 7.896 17.6 17.6 17.6h2.6v29.852l-20.397 8.155C88.59 213.869 76.77 231.33 76.77 251.03v52.56c0 4.143 3.358 7.5 7.5 7.5s7.5-3.357 7.5-7.5v-52.56c0-13.532 8.12-25.527 20.685-30.557l25.11-10.04a7.499 7.499 0 004.715-6.964v-34.93H286.4c4.142 0 7.5-3.357 7.5-7.5s-3.358-7.5-7.5-7.5H124.68a2.602 2.602 0 01-2.6-2.6V108.52a2.608 2.608 0 012.6-2.609h262.64c1.434 0 2.6 1.171 2.6 2.609v42.421c0 1.434-1.167 2.6-2.6 2.6H321.6c-4.142 0-7.5 3.357-7.5 7.5s3.358 7.5 7.5 7.5h48.12v34.93a7.501 7.501 0 004.715 6.964l25.107 10.039c12.567 5.03 20.687 17.025 20.687 30.558v52.56c0 4.143 3.358 7.5 7.5 7.5s7.5-3.357 7.5-7.5v-52.56c.001-19.702-11.819-37.163-30.114-44.486zM256 15c43.464 0 79.251 33.42 83.06 75.91h-17.409c-3.74-32.92-31.748-58.585-65.651-58.585S194.089 57.99 190.349 90.91H172.94C176.749 48.42 212.536 15 256 15zm50.533 75.91H205.467c3.641-24.625 24.912-43.585 50.533-43.585s46.892 18.96 50.533 43.585zM427.73 331.29a7.5 7.5 0 00-7.5 7.5v125.3c0 18.146-14.763 32.91-32.91 32.91h-23.018c.127-.851.214-1.715.214-2.602v-20.203c0-9.705-7.896-17.602-17.602-17.602h-2.816c.127-.851.214-1.715.214-2.602v-20.203a17.6 17.6 0 00-.214-2.603h2.816c9.706 0 17.602-7.896 17.602-17.602V393.38c0-9.705-7.896-17.602-17.602-17.602h-2.816c.127-.851.214-1.715.214-2.602v-20.203c0-9.705-7.896-17.602-17.602-17.602H165.085c-9.706 0-17.602 7.896-17.602 17.602v20.203c0 9.705 7.896 17.602 17.602 17.602h2.816a17.565 17.565 0 00-.214 2.602v20.203c0 .886.087 1.75.214 2.602h-2.816c-9.706 0-17.602 7.896-17.602 17.603v20.203c0 9.705 7.896 17.602 17.602 17.602h2.816a17.565 17.565 0 00-.214 2.602v20.203c0 .886.087 1.75.214 2.602H124.68c-18.147 0-32.91-14.764-32.91-32.91v-125.3c0-4.143-3.358-7.5-7.5-7.5s-7.5 3.357-7.5 7.5v125.3c0 26.418 21.492 47.91 47.91 47.91h262.64c26.418 0 47.91-21.492 47.91-47.91v-125.3a7.5 7.5 0 00-7.5-7.5zm-265.246 41.889v-20.203a2.605 2.605 0 012.602-2.602h161.626a2.605 2.605 0 012.602 2.602v20.203a2.605 2.605 0 01-2.602 2.602H165.085a2.606 2.606 0 01-2.601-2.602zm20.203 40.406v-20.203a2.605 2.605 0 012.602-2.602h161.626a2.605 2.605 0 012.602 2.602v20.203a2.605 2.605 0 01-2.602 2.602H185.289a2.605 2.605 0 01-2.602-2.602zm-20.203 40.407v-20.203a2.605 2.605 0 012.602-2.603h161.626a2.605 2.605 0 012.602 2.603v20.203a2.605 2.605 0 01-2.602 2.602H165.085a2.604 2.604 0 01-2.601-2.602zM185.289 497a2.605 2.605 0 01-2.602-2.602v-20.203a2.605 2.605 0 012.602-2.602h161.626a2.605 2.605 0 012.602 2.602v20.203a2.605 2.605 0 01-2.602 2.602z" data-original="#000000"/></svg>