<svg width="40" height="40" viewBox="0 0 24 24" fill="none" xmlns="http://www.w3.org/2000/svg"><path fill-rule="evenodd" clip-rule="evenodd" d="M20.513 3.487A11.81 11.81 0 0012.103 0C5.55 0 .216 5.333.213 11.888a11.863 11.863 0 001.588 5.944L.114 23.993l6.303-1.653a11.874 11.874 0 005.681 1.447h.005c6.553 0 11.887-5.333 11.889-11.888a11.817 11.817 0 00-3.48-8.412zm-2.99 10.889c-.297-.15-1.757-.867-2.03-.97-.272-.102-.47-.148-.668.15-.197.297-.767.966-.94 1.164-.174.198-.347.223-.644.074-.297-.149-1.254-.462-2.39-1.474-.882-.788-1.481-1.76-1.652-2.058-.171-.298-.019-.456.13-.607.134-.133.297-.346.445-.52.149-.174.199-.297.297-.496.1-.198.05-.371-.024-.52-.074-.149-.669-1.611-.916-2.206-.241-.579-.486-.5-.668-.513-.171-.008-.372-.01-.57-.01a1.092 1.092 0 00-.793.372c-.272.297-1.039 1.016-1.039 2.478 0 1.462 1.064 2.875 1.213 3.073.148.198 2.095 3.199 5.073 4.486a17.03 17.03 0 001.694.627c.711.228 1.359.194 1.87.118.57-.085 1.758-.719 2.006-1.413.248-.693.248-1.289.171-1.412-.076-.124-.268-.192-.565-.341v-.002z" fill="#FFF01F"/></svg>